o Mesh
v 3.999969720840454 -1.999776840209961 5.999665260314941
v 3.9995830059051514 2.0000152587890625 5.999700546264648
v -4.000358581542969 -1.9995479583740234 5.999577522277832
v 3.9995830059051514 2.0000152587890625 5.999700546264648
v 3.999969720840454 -1.999776840209961 5.999665260314941
v 4.000358581542969 -2.0000152587890625 -5.999701023101807
v 3.9995830059051514 2.0000152587890625 5.999700546264648
v 4.000358581542969 -2.0000152587890625 -5.999701023101807
v -4.000358581542969 -1.9995479583740234 5.999577522277832
v -4.000358581542969 -1.9995479583740234 5.999577522277832
v 3.999969720840454 -1.999776840209961 5.999665260314941
v 4.000358581542969 -2.0000152587890625 -5.999701023101807

vn -0.00001096705727832159 -0.000008830457773001399 1
vn -0.00001096705727832159 -0.000008830457773001399 1
vn -0.00001096705727832159 -0.000008830457773001399 1
vn 1 0.00009668348502600566 0.00003242471575504169
vn 1 0.00009668348502600566 0.00003242471575504169
vn 1 0.00009668348502600566 0.00003242471575504169
vn -0.4285268187522888 0.8571497797966003 -0.28576067090034485
vn -0.4285268187522888 0.8571497797966003 -0.28576067090034485
vn -0.4285268187522888 0.8571497797966003 -0.28576067090034485
vn 0.000028609276341740042 1 -0.000019868335584760644
vn 0.000028609276341740042 1 -0.000019868335584760644
vn 0.000028609276341740042 1 -0.000019868335584760644

vt 0 0
vt 0 0
vt 0 0
vt 0 0
vt 0 0
vt 0 0
vt 0 0
vt 0 0
vt 0 0
vt 0 0
vt 0 0
vt 0 0

f 1/1/1 2/2/2 3/3/3
f 4/4/4 5/5/5 6/6/6
f 7/7/7 8/8/8 9/9/9
f 10/10/10 11/11/11 12/12/12